<?xml version="1.0" encoding="utf-8"?>

<!-- Uploaded to: SVG Repo, www.svgrepo.com, Generator: SVG Repo Mixer Tools -->
<svg version="1.1" id="Icons" xmlns="http://www.w3.org/2000/svg" xmlns:xlink="http://www.w3.org/1999/xlink" 
	 viewBox="-16 -16 64 64" xml:space="preserve" height="128px" width="128px">
<style type="text/css">
	.st0{fill:none;stroke:#ffffff;stroke-width:2;stroke-linejoin:round;stroke-miterlimit:10;}
	.st1{fill:none;stroke:#ffffff;stroke-width:2;stroke-linecap:round;stroke-linejoin:round;stroke-miterlimit:10;}
</style>
<path class="st1" d="M10,18V7c0-1.1,0.9-2,2-2h0c1.1,0,2,0.9,2,2v8"/>
<path class="st1" d="M14,15v-1c0-1.1,0.9-2,2-2h0c1.1,0,2,0.9,2,2v1"/>
<path class="st1" d="M18,15v-1c0-1.1,0.9-2,2-2h0c1.1,0,2,0.9,2,2v1"/>
<path class="st1" d="M22,15V9c0-1.1,0.9-2,2-2h0c1.1,0,2,0.9,2,2v11"/>
<path class="st1" d="M10,16v4.6c0,0,0,0,0,0l-1.5-1.8c-0.8-0.9-2.2-1-3.1-0.1l0,0c-0.8,0.8-0.8,2-0.1,2.9l3.2,3.6
	c1.6,1.9,4,2.9,6.4,2.9h2.5H18h0.6c4.1,0,7.4-3.3,7.4-7.4V16"/>
<circle class="st1" cx="16" cy="16" r="24"/>
</svg>